<svg width="24" height="24" viewBox="0 0 24 24" fill="none" xmlns="http://www.w3.org/2000/svg">
<g id=" arrows / arrow-bold-reply-all">
<path id="icon" fill-rule="evenodd" clip-rule="evenodd" d="M4.58578 12L10 6.58578V3.58578L1.58578 12L10 20.4142V17.4142L4.58578 12ZM14 15.8338V20.4142L5.58578 12L14 3.58578V8.03493C19.2611 8.41289 22 11.8507 22 18V20.4142L20.2929 18.7071C18.1237 16.5379 16.0444 15.6089 14 15.8338ZM12 8.41421L8.41421 12L12 15.5858V14.2192L12.7575 14.0299C15.1527 13.431 17.5262 14.0018 19.8396 15.6825C19.2495 11.81 17.022 10 13 10H12V8.41421Z" fill="currentcolor"/>
</g>
</svg>
