<svg width="24" height="24" viewBox="0 0 24 24" fill="none" xmlns="http://www.w3.org/2000/svg">
<g id=" arrows / arrows-hv">
<path id="icon" fill-rule="evenodd" clip-rule="evenodd" d="M19.5858 13H13V19.5858L15.2929 17.2929L16.7071 18.7071L12 23.4142L7.29289 18.7071L8.70711 17.2929L11 19.5858V13H4.41421L6.70711 15.2929L5.29289 16.7071L0.585785 12L5.29289 7.29289L6.70711 8.70711L4.41421 11H11V4.41421L8.70711 6.70711L7.29289 5.29289L12 0.585785L16.7071 5.29289L15.2929 6.70711L13 4.41421V11H19.5858L17.2929 8.70711L18.7071 7.29289L23.4142 12L18.7071 16.7071L17.2929 15.2929L19.5858 13Z" fill="currentcolor"/>
</g>
</svg>
