<svg width="24" height="24" viewBox="0 0 24 24" fill="none" xmlns="http://www.w3.org/2000/svg">
<g id=" notifications / bell-no">
<path id="icon" fill-rule="evenodd" clip-rule="evenodd" d="M19 14.7799V9.99619C19 5.93873 16.7616 3.1226 13.8654 2.27717C13.7605 2.00593 13.5948 1.75378 13.3695 1.5422C12.5997 0.819267 11.4003 0.819267 10.6305 1.5422C10.4057 1.75332 10.2402 2.00483 10.1353 2.27538C9.26832 2.52704 8.46072 2.95463 7.7545 3.53919L9.17638 4.96047C9.99122 4.33972 10.9707 4.01111 12 4.01111C14.6597 4.01111 17 6.22907 17 9.99619C17 11.1799 17.1025 12.1973 17.3032 13.0839L19 14.7799ZM14.0878 22.4135C15.0075 21.8525 15.6242 20.9904 15.8743 20.006H18.5918L21.2929 22.7071L22.7071 21.2929L2.70712 1.29289L1.29291 2.70711L5.48732 6.90152C5.1738 7.82494 5.00001 8.86162 5.00001 9.99619C5.00001 12.629 4.469 14.1042 3.48597 15.1733C3.32162 15.3521 2.87632 15.7615 2.57468 16.0389C2.43196 16.1701 2.32141 16.2718 2.28798 16.3055L2.00001 16.5974V20.006L8.08799 20.006C8.29385 21.0676 8.87011 21.7779 9.91221 22.4135C11.1942 23.1955 12.8059 23.1955 14.0878 22.4135ZM7.12515 8.53935L16.5927 18.0069H4.00001V17.4454C4.29609 17.1742 4.74845 16.7546 4.9585 16.5261C6.29424 15.0734 7.00001 13.1127 7.00001 9.99619C7.00001 9.48079 7.04342 8.99464 7.12515 8.53935ZM10.1786 20.006H13.7367C13.5758 20.2856 13.3434 20.5256 13.046 20.707C12.4037 21.0988 11.5963 21.0988 10.954 20.707C10.5607 20.4671 10.3199 20.2687 10.1786 20.006Z" fill="currentcolor"/>
</g>
</svg>
