<svg width="24" height="24" viewBox="0 0 24 24" fill="none" xmlns="http://www.w3.org/2000/svg">
<path fill-rule="evenodd" clip-rule="evenodd" d="M8.00001 4H21C22.1046 4 23 4.89543 23 6V18C23 19.1046 22.1046 20 21 20H8.00001C7.4948 20 7.26689 19.8135 6.80347 19.3177C6.75714 19.2681 6.70994 19.216 6.66193 19.1616C6.47809 18.9533 6.31423 18.7494 6.23179 18.6402L0.698303 12L1.23179 11.3598L6.18178 5.42511C6.28586 5.27697 6.44365 5.0672 6.62704 4.85178C6.70026 4.76577 6.77253 4.68523 6.84402 4.6108C7.22964 4.20929 7.51574 4 8.00001 4ZM8.14994 6.14822C8.01409 6.3078 7.88981 6.47303 7.76823 6.64018L3.30166 12.0001L7.79437 17.3926C7.87697 17.5006 8.01458 17.6717 8.16161 17.8384C8.19747 17.879 8.23195 17.9171 8.26462 17.952C8.28045 17.969 8.29569 17.985 8.31022 18H21V6H8.28283C8.242 6.0427 8.19724 6.09265 8.14994 6.14822ZM16.2929 8.29289L14 10.5858L11.7071 8.29289L10.2929 9.70711L12.5858 12L10.2929 14.2929L11.7071 15.7071L14 13.4142L16.2929 15.7071L17.7071 14.2929L15.4142 12L17.7071 9.70711L16.2929 8.29289Z" fill="currentcolor"/>
</svg>
