<svg xmlns="http://www.w3.org/2000/svg" xmlns:xlink="http://www.w3.org/1999/xlink" version="1.1" width="256" height="256" viewBox="0 0 256 256" xml:space="preserve">
<desc>Created with Fabric.js 1.7.22</desc>
<defs>
</defs>
<g transform="translate(128 128) scale(0.72 0.72)" style="">
	<g style="stroke: none; stroke-width: 0; stroke-dasharray: none; stroke-linecap: butt; stroke-linejoin: miter; stroke-miterlimit: 10; fill: none; fill-rule: nonzero; opacity: 1;" transform="translate(-175.05 -175.05000000000004) scale(3.89 3.89)" >
	<circle cx="45" cy="45" r="45" style="stroke: none; stroke-width: 1; stroke-dasharray: none; stroke-linecap: butt; stroke-linejoin: miter; stroke-miterlimit: 10; fill: rgb(32,196,203); fill-rule: nonzero; opacity: 1;" transform="  matrix(1 0 0 1 0 0) "/>
	<path d="M 48.876 23.254 H 21.894 c -0.884 0 -1.6 0.717 -1.6 1.6 v 46.411 c 0 0.884 0.716 1.6 1.6 1.6 h 33.341 c 0.884 0 1.6 -0.717 1.6 -1.6 V 30.918 L 48.876 23.254 z M 25.043 30.456 h 13.522 v 3.692 H 25.043 V 30.456 z M 52.087 66.005 H 25.043 v -3.692 h 27.044 V 66.005 z M 52.087 59.654 H 25.043 v -3.692 h 27.044 V 59.654 z M 52.087 53.302 H 25.043 V 49.61 h 27.044 V 53.302 z M 52.087 46.951 H 25.043 v -3.692 h 27.044 V 46.951 z M 52.087 40.549 H 25.043 v -3.692 h 27.044 V 40.549 z M 48.876 32.518 c -0.884 0 -1.6 -0.717 -1.6 -1.6 v -6.063 l 7.96 7.664 H 48.876 z" style="stroke: none; stroke-width: 1; stroke-dasharray: none; stroke-linecap: butt; stroke-linejoin: miter; stroke-miterlimit: 10; fill: rgb(27,167,173); fill-rule: nonzero; opacity: 1;" transform=" matrix(1 0 0 1 0 0) " stroke-linecap="round" />
	<path d="M 51.738 20.392 H 24.756 c -0.884 0 -1.6 0.717 -1.6 1.6 v 46.411 c 0 0.884 0.716 1.6 1.6 1.6 h 33.341 c 0.884 0 1.6 -0.717 1.6 -1.6 V 28.055 L 51.738 20.392 z M 27.905 27.594 h 13.522 v 3.692 H 27.905 V 27.594 z M 54.949 63.143 H 27.905 v -3.692 h 27.044 V 63.143 z M 54.949 56.791 H 27.905 V 53.1 h 27.044 V 56.791 z M 54.949 50.44 H 27.905 v -3.692 h 27.044 V 50.44 z M 54.949 44.088 H 27.905 v -3.692 h 27.044 V 44.088 z M 54.949 37.687 H 27.905 v -3.692 h 27.044 V 37.687 z M 51.738 29.656 c -0.884 0 -1.6 -0.717 -1.6 -1.6 v -6.063 l 7.96 7.664 H 51.738 z" style="stroke: none; stroke-width: 1; stroke-dasharray: none; stroke-linecap: butt; stroke-linejoin: miter; stroke-miterlimit: 10; fill: rgb(255,255,255); fill-rule: nonzero; opacity: 1;" transform=" matrix(1 0 0 1 0 0) " stroke-linecap="round" />
	<circle cx="63.596000000000004" cy="61.525999999999996" r="16.696" style="stroke: none; stroke-width: 1; stroke-dasharray: none; stroke-linecap: butt; stroke-linejoin: miter; stroke-miterlimit: 10; fill: rgb(32,196,203); fill-rule: nonzero; opacity: 1;" transform="  matrix(1 0 0 1 0 0) "/>
	<path d="M 62.34 78.54 c -1.657 0 -3 -1.343 -3 -3 V 58.357 c 0 -1.657 1.343 -3 3 -3 s 3 1.343 3 3 V 75.54 C 65.34 77.197 63.997 78.54 62.34 78.54 z" style="stroke: none; stroke-width: 1; stroke-dasharray: none; stroke-linecap: butt; stroke-linejoin: miter; stroke-miterlimit: 10; fill: rgb(27,167,173); fill-rule: nonzero; opacity: 1;" transform=" matrix(1 0 0 1 0 0) " stroke-linecap="round" />
	<path d="M 70.914 68.694 c -0.69 0 -1.384 -0.236 -1.949 -0.721 l -8.575 -7.337 c -1.259 -1.077 -1.406 -2.971 -0.329 -4.229 c 1.077 -1.26 2.972 -1.406 4.229 -0.329 l 8.575 7.337 c 1.259 1.077 1.406 2.971 0.329 4.229 C 72.602 68.338 71.76 68.694 70.914 68.694 z" style="stroke: none; stroke-width: 1; stroke-dasharray: none; stroke-linecap: butt; stroke-linejoin: miter; stroke-miterlimit: 10; fill: rgb(27,167,173); fill-rule: nonzero; opacity: 1;" transform=" matrix(1 0 0 1 0 0) " stroke-linecap="round" />
	<path d="M 53.765 68.694 c -0.846 0 -1.688 -0.356 -2.28 -1.05 c -1.077 -1.259 -0.93 -3.152 0.329 -4.229 l 8.576 -7.337 c 1.259 -1.077 3.152 -0.931 4.229 0.329 c 1.077 1.259 0.93 3.152 -0.329 4.229 l -8.576 7.337 C 55.148 68.458 54.455 68.694 53.765 68.694 z" style="stroke: none; stroke-width: 1; stroke-dasharray: none; stroke-linecap: butt; stroke-linejoin: miter; stroke-miterlimit: 10; fill: rgb(27,167,173); fill-rule: nonzero; opacity: 1;" transform=" matrix(1 0 0 1 0 0) " stroke-linecap="round" />
	<path d="M 65.202 75.678 c -1.657 0 -3 -1.343 -3 -3 V 55.495 c 0 -1.657 1.343 -3 3 -3 s 3 1.343 3 3 v 17.183 C 68.202 74.335 66.859 75.678 65.202 75.678 z" style="stroke: none; stroke-width: 1; stroke-dasharray: none; stroke-linecap: butt; stroke-linejoin: miter; stroke-miterlimit: 10; fill: rgb(255,255,255); fill-rule: nonzero; opacity: 1;" transform=" matrix(1 0 0 1 0 0) " stroke-linecap="round" />
	<path d="M 73.776 65.832 c -0.69 0 -1.384 -0.236 -1.949 -0.721 l -8.575 -7.337 c -1.259 -1.077 -1.406 -2.971 -0.329 -4.229 s 2.973 -1.406 4.229 -0.329 l 8.575 7.337 c 1.259 1.077 1.406 2.971 0.329 4.229 C 75.464 65.476 74.622 65.832 73.776 65.832 z" style="stroke: none; stroke-width: 1; stroke-dasharray: none; stroke-linecap: butt; stroke-linejoin: miter; stroke-miterlimit: 10; fill: rgb(255,255,255); fill-rule: nonzero; opacity: 1;" transform=" matrix(1 0 0 1 0 0) " stroke-linecap="round" />
	<path d="M 56.627 65.832 c -0.846 0 -1.688 -0.356 -2.28 -1.05 c -1.077 -1.259 -0.93 -3.152 0.329 -4.229 l 8.576 -7.337 c 1.258 -1.078 3.153 -0.931 4.229 0.329 c 1.077 1.259 0.93 3.152 -0.329 4.229 l -8.576 7.337 C 58.011 65.596 57.317 65.832 56.627 65.832 z" style="stroke: none; stroke-width: 1; stroke-dasharray: none; stroke-linecap: butt; stroke-linejoin: miter; stroke-miterlimit: 10; fill: rgb(255,255,255); fill-rule: nonzero; opacity: 1;" transform=" matrix(1 0 0 1 0 0) " stroke-linecap="round" />
</g>
</g>
</svg>