<svg width="24" height="24" viewBox="0 0 24 24" fill="none" xmlns="http://www.w3.org/2000/svg">
<path d="M23 4V10H17" stroke="currentcolor" stroke-width="2" stroke-linecap="round" stroke-linejoin="round"/>
<path d="M1 20V14H7" stroke="currentcolor" stroke-width="2" stroke-linecap="round" stroke-linejoin="round"/>
<path d="M2.56734 8.66641C2.3831 9.18705 2.65581 9.75848 3.17646 9.94272C3.69711 10.127 4.26853 9.85425 4.45277 9.3336L2.56734 8.66641ZM18.3601 5.64L17.6528 6.34693C17.6602 6.35432 17.6677 6.3616 17.6753 6.36875L18.3601 5.64ZM22.3153 10.7288C22.7178 11.1069 23.3506 11.0873 23.7288 10.6848C24.107 10.2823 24.0873 9.64944 23.6848 9.27125L22.3153 10.7288ZM1.68482 13.2712C1.28234 12.8931 0.649484 12.9127 0.271293 13.3152C-0.106899 13.7177 -0.0872101 14.3506 0.315269 14.7288L1.68482 13.2712ZM5.64005 18.36L6.34733 17.6531C6.33994 17.6457 6.33244 17.6384 6.32482 17.6312L5.64005 18.36ZM21.4328 15.3336C21.617 14.813 21.3443 14.2415 20.8236 14.0573C20.303 13.873 19.7316 14.1458 19.5473 14.6664L21.4328 15.3336ZM4.45277 9.3336C5.36911 6.7441 7.5499 4.80579 10.229 4.19961L9.78766 2.24891C6.43875 3.00665 3.71276 5.42953 2.56734 8.66641L4.45277 9.3336ZM10.229 4.19961C12.9082 3.59342 15.7109 4.40413 17.6528 6.34693L19.0673 4.93307C16.6401 2.50457 13.1366 1.49118 9.78766 2.24891L10.229 4.19961ZM17.6753 6.36875L22.3153 10.7288L23.6848 9.27125L19.0448 4.91125L17.6753 6.36875ZM0.315269 14.7288L4.95527 19.0888L6.32482 17.6312L1.68482 13.2712L0.315269 14.7288ZM4.93276 19.0669C7.36005 21.4954 10.8635 22.5088 14.2124 21.7511L13.7711 19.8004C11.0919 20.4066 8.28916 19.5959 6.34733 17.6531L4.93276 19.0669ZM14.2124 21.7511C17.5614 20.9934 20.2873 18.5705 21.4328 15.3336L19.5473 14.6664C18.631 17.2559 16.4502 19.1942 13.7711 19.8004L14.2124 21.7511Z" fill="currentcolor"/>
</svg>
