<svg width="24" height="24" viewBox="0 0 24 24" fill="none" xmlns="http://www.w3.org/2000/svg">
<path fill-rule="evenodd" clip-rule="evenodd" d="M22 11.9991C22 10.3166 20.8696 8.99912 19 8.99912H15.927L15.9548 8.92339C15.9826 8.84831 16.0607 8.64228 16.1367 8.44201L16.137 8.44125L16.137 8.44119L16.1371 8.44088C16.2044 8.26356 16.2699 8.09096 16.2971 8.01802C16.4872 7.50767 16.626 7.09647 16.7382 6.68924C16.9079 6.07375 17 5.51923 17 4.99912C17 3.52711 16.0919 2.61283 14.7483 2.2216C14.1423 2.04514 13.6148 1.99902 13 1.99912H12.5205L12.2203 2.373C11.8811 2.79536 11.215 3.55654 10.447 4.43412L10.447 4.43413L10.447 4.43414C9.03024 6.05305 7.2669 8.06802 6.57035 9.08251C6.38961 9.02883 6.19817 9.00001 6 9.00001H4C2.89543 9.00001 2 9.89544 2 11V20C2 21.1046 2.89543 22 4 22H6C6.68712 22 7.29331 21.6535 7.65337 21.1257C7.95674 21.3219 8.29522 21.4857 8.66312 21.6173C9.50544 21.9187 10.3408 22.0112 11.0344 21.9985L18 21.9991C20.7551 21.9991 22 17.9427 22 11.9991ZM9.33688 19.7342C8.45197 19.4176 8 18.9013 8 17.9991V11V10.9991C8 10.7589 8.04443 10.5462 8.14171 10.3191C8.31645 9.91111 9.90193 8.10225 11.4047 6.38779L11.4048 6.38763C12.1803 5.50284 12.9338 4.6432 13.46 4.01425C13.7114 4.0331 13.9484 4.07174 14.1891 4.14185C14.7622 4.30871 15 4.54814 15 4.99912C15 5.3157 14.9359 5.70143 14.8101 6.15772C14.7161 6.49869 14.5944 6.85949 14.4229 7.31978C14.3986 7.38497 14.3381 7.54453 14.2737 7.71434L14.2733 7.71539L14.2731 7.71574L14.2729 7.71629C14.1943 7.92343 14.1101 8.14536 14.079 8.22966C13.9489 8.58128 13.8633 8.84018 13.8047 9.07543C13.5555 10.0755 13.8055 10.9991 15 10.9991H19C19.6912 10.9991 20 11.359 20 11.9991C20 16.7899 19.0151 19.9991 18 19.9991H11L10.9631 19.9997C10.5254 20.0076 9.91062 19.9395 9.33688 19.7342ZM4 20V11H6V20H4Z" fill="currentcolor"/>
</svg>
