<svg width="24" height="24" viewBox="0 0 24 24" fill="none" xmlns="http://www.w3.org/2000/svg">
<path fill-rule="evenodd" clip-rule="evenodd" d="M6.20712 2.70712L4.79291 1.29291L1.29291 4.79291L2.70712 6.20712L6.20712 2.70712ZM19.2071 1.29291L22.7071 4.79291L21.2929 6.20712L17.7929 2.70712L19.2071 1.29291ZM2.00001 12C2.00001 17.5229 6.47717 22 12 22C17.5229 22 22 17.5229 22 12C22 6.47717 17.5229 2.00001 12 2.00001C6.47717 2.00001 2.00001 6.47717 2.00001 12ZM20 12C20 16.4183 16.4183 20 12 20C7.58174 20 4.00001 16.4183 4.00001 12C4.00001 7.58174 7.58174 4.00001 12 4.00001C16.4183 4.00001 20 7.58174 20 12ZM11 13H8.00001V11H11V8.00001H13V11H16V13H13V16H11V13Z" fill="currentcolor"/>
</svg>
