<svg width="24" height="24" viewBox="0 0 24 24" fill="none" xmlns="http://www.w3.org/2000/svg">
<path fill-rule="evenodd" clip-rule="evenodd" d="M2.33579 3.75001L1.29289 4.79291L2.70711 6.20712L3.75 5.16423L4.25705 5.67128C2.84636 7.39515 2 9.59874 2 12C2 17.5229 6.47715 22 12 22C14.4013 22 16.6049 21.1536 18.3287 19.743L21.2929 22.7071L22.7071 21.2929L2.70711 1.29291L1.29289 2.70712L2.33579 3.75001ZM16.9056 18.3199L5.68014 7.09437C4.62708 8.44905 4 10.1513 4 12C4 16.4183 7.58172 20 12 20C13.8487 20 15.551 19.3729 16.9056 18.3199ZM20 12C20 13.1162 19.7714 14.1791 19.3584 15.1442L20.8584 16.6442C21.5875 15.2565 22 13.6764 22 12C22 6.47717 17.5228 2.00001 12 2.00001C10.3236 2.00001 8.74353 2.41253 7.35578 3.14158L8.85577 4.64157C9.82094 4.22862 10.8838 4.00001 12 4.00001C16.4183 4.00001 20 7.58174 20 12ZM19.2071 1.29291L22.7071 4.79291L21.2929 6.20712L17.7929 2.70712L19.2071 1.29291Z" fill="currentcolor"/>
</svg>
