<svg width="24" height="24" viewBox="0 0 24 24" fill="none" xmlns="http://www.w3.org/2000/svg">
<path fill-rule="evenodd" clip-rule="evenodd" d="M4.79289 1.29291L6.20711 2.70712L2.70711 6.20712L1.29289 4.79291L4.79289 1.29291ZM22.7071 4.79291L19.2071 1.29291L17.7929 2.70712L21.2929 6.20712L22.7071 4.79291ZM12 22C6.47715 22 2 17.5229 2 12C2 6.47717 6.47715 2.00001 12 2.00001C17.5228 2.00001 22 6.47717 22 12C22 17.5229 17.5228 22 12 22ZM12 20C16.4183 20 20 16.4183 20 12C20 7.58174 16.4183 4.00001 12 4.00001C7.58172 4.00001 4 7.58174 4 12C4 16.4183 7.58172 20 12 20ZM15.2929 8.29291L11 12.5858L8.70711 10.2929L7.29289 11.7071L11 15.4142L16.7071 9.70712L15.2929 8.29291Z" fill="currentcolor"/>
</svg>
