<svg width="24" height="24" viewBox="0 0 24 24" fill="none" xmlns="http://www.w3.org/2000/svg">
<path fill-rule="evenodd" clip-rule="evenodd" d="M4.79291 1.29291L6.20712 2.70712L2.70712 6.20712L1.29291 4.79291L4.79291 1.29291ZM22.7071 4.79291L19.2071 1.29291L17.7929 2.70712L21.2929 6.20712L22.7071 4.79291ZM12 22C6.47717 22 2.00001 17.5229 2.00001 12C2.00001 6.47717 6.47717 2.00001 12 2.00001C17.5229 2.00001 22 6.47717 22 12C22 17.5229 17.5229 22 12 22ZM12 20C16.4183 20 20 16.4183 20 12C20 7.58174 16.4183 4.00001 12 4.00001C7.58174 4.00001 4.00001 7.58174 4.00001 12C4.00001 16.4183 7.58174 20 12 20ZM8.00001 11V13H16V11H8.00001Z" fill="currentcolor"/>
</svg>
