<svg width="48" height="48" viewBox="0 0 48 48" fill="none" xmlns="http://www.w3.org/2000/svg">
<path d="M2 8V20H14" stroke="#407BFF" stroke-width="2" stroke-linecap="round" stroke-linejoin="round"/>
<path d="M46 40V28H34" stroke="#407BFF" stroke-width="2" stroke-linecap="round" stroke-linejoin="round"/>
<path d="M40.0373 18.3336C40.2216 18.8542 40.793 19.127 41.3137 18.9427C41.8343 18.7585 42.107 18.1871 41.9228 17.6664L40.0373 18.3336ZM11.2801 11.28L11.9648 12.0088C11.9725 12.0016 11.98 11.9943 11.9873 11.9869L11.2801 11.28ZM1.31528 19.2713C0.912805 19.6494 0.893116 20.2823 1.27131 20.6848C1.6495 21.0873 2.28236 21.1069 2.68484 20.7288L1.31528 19.2713ZM46.6849 28.7288C47.0873 28.3506 47.107 27.7177 46.7288 27.3152C46.3506 26.9127 45.7178 26.8931 45.3153 27.2712L46.6849 28.7288ZM36.7201 36.72L36.0353 35.9912C36.0277 35.9984 36.0202 36.0057 36.0128 36.0131L36.7201 36.72ZM7.9628 29.6664C7.77856 29.1458 7.20713 28.873 6.68648 29.0573C6.16584 29.2415 5.89312 29.813 6.07736 30.3336L7.9628 29.6664ZM41.9228 17.6664C39.7465 11.5163 34.5671 6.91287 28.2042 5.47317L27.7628 7.42387C33.456 8.71201 38.0901 12.8309 40.0373 18.3336L41.9228 17.6664ZM28.2042 5.47317C21.8412 4.03348 15.1846 5.95892 10.5728 10.5731L11.9873 11.9869C16.1137 7.85848 22.0697 6.13572 27.7628 7.42387L28.2042 5.47317ZM10.5953 10.5513L1.31528 19.2713L2.68484 20.7288L11.9648 12.0088L10.5953 10.5513ZM45.3153 27.2712L36.0353 35.9912L37.4049 37.4488L46.6849 28.7288L45.3153 27.2712ZM36.0128 36.0131C31.8864 40.1415 25.9305 41.8643 20.2373 40.5761L19.796 42.5268C26.1589 43.9665 32.8155 42.0411 37.4274 37.4269L36.0128 36.0131ZM20.2373 40.5761C14.5442 39.288 9.91002 35.1691 7.9628 29.6664L6.07736 30.3336C8.25367 36.4837 13.433 41.0871 19.796 42.5268L20.2373 40.5761Z" fill="#407BFF"/>
</svg>
