<svg width="24" height="24" viewBox="0 0 24 24" fill="none" xmlns="http://www.w3.org/2000/svg">
<g id=" symbols / gitlab">
<path id="icon" fill-rule="evenodd" clip-rule="evenodd" d="M17.1056 3.5528L14.382 9.00001H9.61804L6.89443 3.5528C6.48944 2.74282 5.3024 2.84527 5.04218 3.71266L2.04218 13.7127C1.92354 14.1081 2.06015 14.5359 2.38607 14.7894L11.3861 21.7894C11.7472 22.0702 12.2528 22.0702 12.6139 21.7894L21.6139 14.7894C21.9399 14.5359 22.0765 14.1081 21.9578 13.7127L18.9578 3.71266C18.6976 2.84527 17.5106 2.74282 17.1056 3.5528ZM15.8944 10.4472L17.7668 6.70259L19.8453 13.6312L12 19.7332L4.15467 13.6312L6.23326 6.70259L8.10558 10.4472C8.27497 10.786 8.62123 11 9.00001 11H15C15.3788 11 15.725 10.786 15.8944 10.4472Z" fill="currentcolor"/>
</g>
</svg>
