<svg width="24" height="24" viewBox="0 0 24 24" fill="none" xmlns="http://www.w3.org/2000/svg">
<g id=" security / key-no">
<path id="icon" fill-rule="evenodd" clip-rule="evenodd" d="M1.29291 2.70712L8.01286 9.42707C8.03346 9.76856 8.07873 10.1061 8.14802 10.4378L2.00001 16.5858V22H9.00001V20H11V18H13V16H14.5858L21.2929 22.7071L22.7071 21.2929L2.70712 1.29291L1.29291 2.70712ZM10 11.4142L12.5858 14H11V16H9.00001V18H7.00001V20H4.00001V17.4142L10 11.4142ZM9.23812 5.0239C10.5012 3.19696 12.6108 2.00001 15 2.00001C18.866 2.00001 22 5.13402 22 9.00001C22 11.3892 20.8031 13.4988 18.9761 14.7619L17.5286 13.3144C19.0073 12.4459 20 10.8389 20 9.00001C20 6.23859 17.7614 4.00001 15 4.00001C13.1611 4.00001 11.5541 4.99269 10.6856 6.47139L9.23812 5.0239ZM15 7.00001C13.9643 7.00001 13.1125 7.7873 13.0103 8.79607L15.204 10.9897C16.2127 10.8876 17 10.0357 17 9.00001C17 7.89544 16.1046 7.00001 15 7.00001Z" fill="currentcolor"/>
</g>
</svg>
