<svg width="24" height="24" viewBox="0 0 24 24" fill="none" xmlns="http://www.w3.org/2000/svg">
<g id=" security / shield-no">
<path id="icon" fill-rule="evenodd" clip-rule="evenodd" d="M12 1C9.90883 1 7.83075 1.70053 6.4876 2.27339L8.00931 3.7951C9.21599 3.36779 10.7213 3 12 3C14.2602 3 16.4143 3.67992 17.8906 4.6641C18.1274 4.82194 18.5488 5.0834 18.8722 5.284C18.9205 5.31397 18.9666 5.34258 19.0096 5.36928C19.0117 5.96182 19.0127 7.87764 19.009 10.1098C19.0082 10.6273 19.0072 11.1695 19.0059 11.8014L19.0018 13.7547C19.0009 14.2193 19.0004 14.5513 19.0001 14.7859L20.6926 16.4784C20.8975 15.9856 21 15.4928 21 15C21 14.6186 21.0017 13.8033 21.0038 12.7947C21.01 9.83711 21.0197 5.21723 21 5C21 4.23241 20.7054 4.05401 19.8901 3.56029C19.6432 3.4108 19.3486 3.23241 19 3C17.5 2 14.9952 1 12 1ZM3.07047 4.48468L1.29289 2.70711L2.70711 1.29289L22.7071 21.2929L21.2929 22.7071L18.1151 19.5293C16.6414 20.6862 14.603 21.8431 12 23C6 20.3271 3 17.6604 3 15V5C3 4.79045 3.02195 4.62481 3.07047 4.48468ZM16.6943 18.1085L5 6.41421V15C5 16.5085 7.22911 18.5687 12.0009 20.802C14.0073 19.865 15.5639 18.9578 16.6943 18.1085Z" fill="currentcolor"/>
</g>
</svg>
