<svg width="12" height="16" viewBox="0 0 12 16" fill="none" xmlns="http://www.w3.org/2000/svg">
<path fill-rule="evenodd" clip-rule="evenodd" d="M8.27614 0.666687H1.33333C0.596954 0.666687 0 1.26364 0 2.00002V14C0 14.7364 0.596954 15.3334 1.33333 15.3334H10.6667C11.403 15.3334 12 14.7364 12 14V4.39054L8.27614 0.666687ZM1.33333 2.00002H6.66667V4.66669C6.66667 5.40307 7.26362 6.00002 8 6.00002H10.6667V14H1.33333V2.00002ZM8 4.66669V2.27616L10.3905 4.66669H8ZM5.33333 6.66669V9.72388L4.4714 8.86195L3.52859 9.80476L6 12.2762L8.4714 9.80476L7.52859 8.86195L6.66666 9.72388V6.66669H5.33333Z" fill="#407BFF"/>
</svg>
