<svg width="24" height="24" viewBox="0 0 24 24" fill="none" xmlns="http://www.w3.org/2000/svg">
<g id=" various / atom">
<path id="icon" fill-rule="evenodd" clip-rule="evenodd" d="M19.6278 12C21.7205 15.4223 22.2461 18.7245 20.4853 20.4853C18.7244 22.2462 15.4222 21.7206 12 19.6278C8.57772 21.7206 5.27554 22.2462 3.51471 20.4853C1.75387 18.7245 2.27946 15.4223 4.37219 12C2.27946 8.57779 1.75387 5.2756 3.51471 3.51477C5.27554 1.75393 8.57772 2.27952 12 4.37225C15.4223 2.27952 18.7244 1.75393 20.4853 3.51477C22.2461 5.2756 21.7205 8.57778 19.6278 12ZM9.17156 9.17162C10.0979 8.24524 11.0567 7.44249 12 6.77451C12.9432 7.44249 13.902 8.24524 14.8284 9.17162C15.7548 10.098 16.5575 11.0568 17.2255 12C16.5575 12.9433 15.7548 13.9021 14.8284 14.8285C13.902 15.7549 12.9432 16.5576 12 17.2256C11.0567 16.5576 10.0979 15.7549 9.17156 14.8285C8.24518 13.9021 7.44243 12.9433 6.77445 12C7.44243 11.0568 8.24518 10.098 9.17156 9.17162ZM4.92892 4.92898C5.7904 4.0675 7.8205 4.36807 10.1706 5.63348C9.35211 6.26231 8.54119 6.97357 7.75735 7.75741C6.97351 8.54125 6.26224 9.35217 5.63342 10.1707C4.36801 7.82056 4.06744 5.79046 4.92892 4.92898ZM16.2426 7.75741C17.0265 8.54125 17.7377 9.35217 18.3666 10.1707C19.632 7.82056 19.9325 5.79046 19.0711 4.92898C18.2096 4.0675 16.1795 4.36807 13.8293 5.63348C14.6479 6.26231 15.4588 6.97357 16.2426 7.75741ZM16.2426 16.2427C17.0265 15.4588 17.7377 14.6479 18.3666 13.8294C19.632 16.1795 19.9325 18.2096 19.0711 19.0711C18.2096 19.9326 16.1795 19.632 13.8293 18.3666C14.6479 17.7378 15.4588 17.0265 16.2426 16.2427ZM5.63342 13.8294C6.26224 14.6479 6.97351 15.4588 7.75735 16.2427C8.54119 17.0265 9.35211 17.7378 10.1706 18.3666C7.8205 19.632 5.7904 19.9326 4.92892 19.0711C4.06744 18.2096 4.36801 16.1795 5.63342 13.8294ZM13 12C13 11.4478 12.5523 11 12 11C11.4477 11 11 11.4478 11 12C11 12.5523 11.4477 13 12 13C12.5523 13 13 12.5523 13 12Z" fill="currentcolor"/>
</g>
</svg>
