<svg width="24" height="24" viewBox="0 0 24 24" fill="none" xmlns="http://www.w3.org/2000/svg">
<g id=" various / planet">
<path id="icon" fill-rule="evenodd" clip-rule="evenodd" d="M19.8096 10.2573C20.7596 9.2357 21.1931 8.35082 20.9487 7.82664C20.7042 7.30224 19.7469 7.06555 18.3527 7.13687C19.0479 8.04367 19.5533 9.10361 19.8096 10.2573ZM16.4341 5.34028C15.165 4.49357 13.6401 4 12 4C7.88082 4 4.48877 7.1132 4.04839 11.1151C1.64816 13.1736 0.452537 15.3374 1.2365 17.0186C2.02039 18.6996 4.44608 19.1747 7.56541 18.6594C8.83465 19.5063 10.3597 20 12 20C16.1199 20 19.5124 16.8857 19.9518 12.8829C22.3505 10.825 23.545 8.66206 22.7613 6.98141C21.9776 5.30067 19.5526 4.8255 16.4341 5.34028ZM8.05156 16.5178C6.79417 15.418 6 13.8018 6 12C6 8.68629 8.68629 6 12 6C15.2732 6 17.9343 8.62106 17.9988 11.8788C16.7275 12.8592 15.1124 13.8583 13.2668 14.7189C11.422 15.5792 9.61918 16.1741 8.05156 16.5178ZM10.7415 17.8678C11.8361 17.512 12.9695 17.0643 14.112 16.5315C15.2553 15.9984 16.3274 15.4175 17.3041 14.8073C16.2968 16.7065 14.2995 18 12 18C11.5683 18 11.1473 17.9544 10.7415 17.8678ZM5.64723 16.863C4.25184 16.9347 3.29377 16.698 3.04912 16.1734C2.80454 15.6489 3.23872 14.7632 4.18993 13.7408C4.44609 14.8952 4.95168 15.9558 5.64723 16.863Z" fill="currentcolor"/>
</g>
</svg>
