<svg width="24" height="24" viewBox="0 0 24 24" fill="none" xmlns="http://www.w3.org/2000/svg">
<g id=" various / sun">
<path id="icon" fill-rule="evenodd" clip-rule="evenodd" d="M5.92685 18.0732L7.6113 22.5953L12 20.5887L16.3887 22.5953L18.0731 18.0732L22.5952 16.3887L20.5887 12L22.5952 7.61133L18.0731 5.92688L16.3887 1.40479L12 3.4113L7.6113 1.40479L5.92685 5.92688L1.40475 7.61133L3.41127 12L1.40475 16.3887L5.92685 18.0732ZM15.265 19.8824L12 18.3896L8.73501 19.8824L7.48186 16.5182L4.11764 15.265L5.61039 12L4.11764 8.73504L7.48186 7.48189L8.73501 4.11767L12 5.61042L15.265 4.11767L16.5181 7.48189L19.8823 8.73504L18.3896 12L19.8823 15.265L16.5181 16.5182L15.265 19.8824ZM12 17C9.23857 17 6.99999 14.7614 6.99999 12C6.99999 9.2386 9.23857 7.00002 12 7.00002C14.7614 7.00002 17 9.2386 17 12C17 14.7614 14.7614 17 12 17ZM15 12C15 13.6569 13.6568 15 12 15C10.3431 15 8.99999 13.6569 8.99999 12C8.99999 10.3432 10.3431 9.00002 12 9.00002C13.6568 9.00002 15 10.3432 15 12Z" fill="currentcolor"/>
</g>
</svg>
