<svg width="24" height="24" viewBox="0 0 24 24" fill="none" xmlns="http://www.w3.org/2000/svg">
<g id=" various / toy-horse">
<path id="icon" fill-rule="evenodd" clip-rule="evenodd" d="M4.23606 9.76389L6.44721 8.65831L8.07966 11.9232L6.06347 17.9718C6.26697 18.1217 6.48188 18.267 6.70649 18.4063C8.06781 15.9555 9.23042 15 11.5 15C14.0216 15 16.1748 16.5483 16.81 18.6884C17.1426 18.5058 17.4585 18.3097 17.7529 18.1036C17.3711 17.6253 17.059 17.1076 16.7964 16.5397C16.5128 15.9267 16.4407 15.7125 16.0307 14.3862C15.4272 12.4338 14.9866 12 13 12H12C10.4477 12 8.99999 10.5522 8.99999 8.99996C8.99999 7.7923 8.07208 6.87271 5.98508 6.26585L4.23606 9.76389ZM5.92032 12.0767L4.48418 16.3851C4.17419 15.9157 3.99999 15.444 3.99999 15H1.99999C1.99999 18.4747 7.18254 22 12 22C16.8175 22 22 18.4747 22 15H20C20 15.5621 19.7208 16.1685 19.2404 16.7586C18.9957 16.4363 18.7906 16.0872 18.6116 15.7002C18.3817 15.203 18.3197 15.0189 17.9415 13.7955C17.7743 13.2547 17.5964 12.7785 17.3949 12.3627C18.7525 11.7546 20.0639 11.911 21.4453 12.832L22.5547 11.1679C20.4435 9.76046 18.2493 9.62505 16.1222 10.7617C15.3827 10.236 14.3967 9.99996 13 9.99996H12C11.5523 9.99996 11 9.44767 11 8.99996C11 6.41537 8.9413 4.76841 5.19611 4.01937L3.99999 3.78015V5.76389L1.78323 10.1974L3.80254 12.2167L5.55278 11.3416L5.92032 12.0767ZM8.4981 19.299C9.6089 19.7325 10.8196 20 12 20C12.9877 20 13.9966 19.8127 14.9505 19.4976C14.6721 18.0987 13.2524 17 11.5 17C10.1985 17 9.48024 17.5525 8.4981 19.299Z" fill="currentcolor"/>
</g>
</svg>
