<svg width="24" height="24" viewBox="0 0 24 24" fill="none" xmlns="http://www.w3.org/2000/svg">
<g id=" shopping / tote">
<path id="icon" fill-rule="evenodd" clip-rule="evenodd" d="M7.03358 6C7.32757 3.81519 9.51094 2 12 2C14.489 2 16.6724 3.81519 16.9664 6H19.847C20.9515 6 21.847 6.89543 21.847 8C21.847 8.09464 21.8403 8.18916 21.8269 8.28284L20.1126 20.2828C19.9718 21.2681 19.128 22 18.1327 22H5.86728C4.87198 22 4.02814 21.2681 3.88738 20.2828L2.1731 8.28284C2.01689 7.18937 2.77668 6.17631 3.87015 6.0201C3.96384 6.00672 4.05836 6 4.153 6H7.03358ZM14.9279 6C14.6239 4.93808 13.398 4 12 4C10.602 4 9.3761 4.93808 9.07211 6H14.9279ZM4.153 8H6.99999V10H8.99999V8H15V10H17V8H19.847L18.1327 20H5.86728L4.153 8Z" fill="currentcolor"/>
</g>
</svg>
