<svg width="24" height="24" viewBox="0 0 24 24" fill="none" xmlns="http://www.w3.org/2000/svg">
<g id=" maps / pin-no">
<path id="icon" fill-rule="evenodd" clip-rule="evenodd" d="M12 1C10.079 1 8.2817 1.57577 6.80608 2.59187L8.25135 4.03714C9.33838 3.37159 10.6261 3 12 3C15.8359 3 19 5.8966 19 10C19 11.123 18.6417 12.3601 17.9202 13.706L19.3888 15.1745C20.4603 13.346 21 11.624 21 10C21 4.75066 16.9029 1 12 1ZM4.12561 5.53983L1.29289 2.70711L2.70711 1.29289L22.7071 21.2929L21.2929 22.7071L17.0177 18.4319C15.828 19.8154 14.3738 21.2549 12.6577 22.7533L12 23.3276L11.3423 22.7533C5.81131 17.9237 3 13.7068 3 10C3 8.33957 3.40992 6.82909 4.12561 5.53983ZM15.5989 17.0131L5.61683 7.03104C5.22094 7.91564 5 8.91569 5 10C5 12.8492 7.30661 16.4335 12 20.6634C13.4162 19.387 14.6151 18.1695 15.5989 17.0131Z" fill="currentcolor"/>
</g>
</svg>
